<svg id="Layer_1" height="512" viewBox="0 0 512 512" width="512" xmlns="http://www.w3.org/2000/svg" data-name="Layer 1"><path d="m366.823 146.207h-134.34v58.293a10.586 10.586 0 0 1 -16.177 8.988l-77.035-47.93-78.765-49.01a10.585 10.585 0 0 1 0-17.975l78.766-49.007 77.034-47.929a10.342 10.342 0 0 1 10.732-.265 10.346 10.346 0 0 1 5.445 9.252v58.289h168.747a55.364 55.364 0 0 1 55.257 55.258v123.518a8.328 8.328 0 0 1 -8.311 8.311h-60.671a8.328 8.328 0 0 1 -8.312-8.311v-89.111a12.4 12.4 0 0 0 -12.37-12.371zm-221.645 219.586a12.4 12.4 0 0 1 -12.371-12.371v-89.111a8.329 8.329 0 0 0 -8.307-8.311h-60.676a8.328 8.328 0 0 0 -8.311 8.311v123.518a55.364 55.364 0 0 0 55.257 55.258h168.747v58.289a10.586 10.586 0 0 0 16.177 8.987l77.034-47.929 78.766-49.007a10.585 10.585 0 0 0 0-17.975l-78.765-49.006-77.035-47.93a10.586 10.586 0 0 0 -16.177 8.988v58.289z" fill-rule="evenodd"/></svg>